<svg width="200" height="200" viewBox="0 0 200 200" fill="none" xmlns="http://www.w3.org/2000/svg">
<rect width="200" height="200" rx="30" fill="#E4FBFF"/>
<path d="M75 125C67.9167 125 61.9792 122.604 57.1875 117.812C52.3958 113.021 50 107.083 50 100C50 92.9167 52.3958 86.9792 57.1875 82.1875C61.9792 77.3958 67.9167 75 75 75H92.5C93.5625 75 94.4531 75.3615 95.1719 76.0844C95.8906 76.8074 96.25 77.7032 96.25 78.7719C96.25 79.8406 95.8906 80.7292 95.1719 81.4375C94.4531 82.1458 93.5625 82.5 92.5 82.5H75C70 82.5 65.8333 84.1667 62.5 87.5C59.1667 90.8333 57.5 95 57.5 100C57.5 105 59.1667 109.167 62.5 112.5C65.8333 115.833 70 117.5 75 117.5H92.5C93.5625 117.5 94.4531 117.861 95.1719 118.584C95.8906 119.307 96.25 120.203 96.25 121.272C96.25 122.341 95.8906 123.229 95.1719 123.938C94.4531 124.646 93.5625 125 92.5 125H75ZM84.25 103.75C83.1875 103.75 82.2969 103.389 81.5781 102.666C80.8594 101.943 80.5 101.047 80.5 99.9781C80.5 98.9094 80.8594 98.0208 81.5781 97.3125C82.2969 96.6042 83.1875 96.25 84.25 96.25H115.5C116.562 96.25 117.453 96.6115 118.172 97.3344C118.891 98.0574 119.25 98.9532 119.25 100.022C119.25 101.091 118.891 101.979 118.172 102.688C117.453 103.396 116.562 103.75 115.5 103.75H84.25ZM150 100H142.5C142.5 95 140.833 90.8333 137.5 87.5C134.167 84.1667 130 82.5 125 82.5H107.5C106.438 82.5 105.547 82.1385 104.828 81.4156C104.109 80.6926 103.75 79.7968 103.75 78.7281C103.75 77.6594 104.109 76.7708 104.828 76.0625C105.547 75.3542 106.438 75 107.5 75H125C132.083 75 138.021 77.3958 142.812 82.1875C147.604 86.9792 150 92.9167 150 100ZM131.103 140C130.034 140 129.146 139.641 128.438 138.922C127.729 138.203 127.375 137.312 127.375 136.25V125H116.125C115.062 125 114.172 124.639 113.453 123.916C112.734 123.193 112.375 122.297 112.375 121.228C112.375 120.159 112.734 119.271 113.453 118.562C114.172 117.854 115.062 117.5 116.125 117.5H127.375V106.25C127.375 105.188 127.736 104.297 128.459 103.578C129.182 102.859 130.078 102.5 131.147 102.5C132.216 102.5 133.104 102.859 133.812 103.578C134.521 104.297 134.875 105.188 134.875 106.25V117.5H146.125C147.188 117.5 148.078 117.861 148.797 118.584C149.516 119.307 149.875 120.203 149.875 121.272C149.875 122.341 149.516 123.229 148.797 123.938C148.078 124.646 147.188 125 146.125 125H134.875V136.25C134.875 137.312 134.514 138.203 133.791 138.922C133.068 139.641 132.172 140 131.103 140Z" fill="#0202FF"/>
</svg>
