<svg width="200" height="200" viewBox="0 0 200 200" fill="none" xmlns="http://www.w3.org/2000/svg">
<g clip-path="url(#clip0_2578_30855)">
<path d="M100 200C155.229 200 200 155.229 200 100C200 44.7716 155.229 0 100 0C44.7716 0 0 44.7716 0 100C0 155.229 44.7716 200 100 200Z" fill="#E5E5FF"/>
<path d="M96.7995 50C104.022 50 110.192 52.5198 115.311 57.5595C120.43 62.5992 122.99 68.7302 122.99 75.9524C122.99 80.0794 122.097 83.9683 120.311 87.619C118.526 91.2698 116.006 94.3651 112.752 96.9048H108.704V90.9524C111.006 89.127 112.772 86.9048 114.002 84.2857C115.232 81.6667 115.847 78.8889 115.847 75.9524C115.847 70.7143 113.982 66.2698 110.252 62.619C106.522 58.9683 102.038 57.1429 96.7995 57.1429C91.5614 57.1429 87.0773 58.9683 83.3472 62.619C79.617 66.2698 77.7519 70.7143 77.7519 75.9524C77.7519 78.8889 78.367 81.6667 79.5972 84.2857C80.8273 86.9048 82.5932 89.127 84.8948 90.9524V99.5238C80.4503 97.2222 76.9583 93.9683 74.4186 89.7619C71.8789 85.5556 70.6091 80.9524 70.6091 75.9524C70.6091 68.7302 73.1686 62.5992 78.2876 57.5595C83.4067 52.5198 89.5773 50 96.7995 50ZM92.2757 150C90.9265 150 89.6567 149.742 88.4662 149.226C87.2757 148.71 86.244 148.016 85.371 147.143L65.7281 127.5C64.5376 126.31 63.9622 124.683 64.0019 122.619C64.0416 120.556 64.8551 118.611 66.4424 116.786C68.0297 114.96 69.6368 113.79 71.2638 113.274C72.8908 112.758 74.6567 112.698 76.5614 113.095L84.8948 115V76.1905C84.8948 72.8571 86.0456 70.0397 88.3472 67.7381C90.6487 65.4365 93.4662 64.2857 96.7995 64.2857C100.133 64.2857 102.95 65.4365 105.252 67.7381C107.554 70.0397 108.704 72.8571 108.704 76.1905V96.6667H111.8C112.196 96.6667 112.554 96.746 112.871 96.9048C113.188 97.0635 113.546 97.2222 113.942 97.381L131.561 105.952C133.466 106.825 134.875 108.234 135.788 110.179C136.7 112.123 136.958 114.127 136.561 116.19L132.276 142.143C131.879 144.444 130.768 146.329 128.942 147.798C127.117 149.266 125.054 150 122.752 150H92.2757ZM91.3233 142.857H124.776L129.895 113.214L108.109 102.381H101.561V76.1905C101.561 74.7619 101.125 73.6111 100.252 72.7381C99.3789 71.8651 98.2281 71.4286 96.7995 71.4286C95.371 71.4286 94.2202 71.8651 93.3472 72.7381C92.4741 73.6111 92.0376 74.7619 92.0376 76.1905V123.69L73.7043 119.762L70.9662 122.5L91.3233 142.857Z" fill="#0202FF"/>
</g>
<defs>
<clipPath id="clip0_2578_30855">
<rect width="200" height="200" fill="white"/>
</clipPath>
</defs>
</svg>
