<svg width="24" height="24" viewBox="0 0 24 24" fill="none" xmlns="http://www.w3.org/2000/svg">
<path d="M7.80402 3.01875C6.54308 3.29531 5.3384 3.67969 4.21809 4.14844C3.6134 4.40625 3.6509 4.36406 3.03215 5.4C0.829023 9.07031 -0.16004 12.8953 0.0462104 16.9594C0.0743354 17.5219 0.107148 18.0094 0.116523 18.0469C0.144648 18.1312 1.50871 19.0453 2.10402 19.3828C2.71809 19.7297 3.71652 20.2172 4.33527 20.475C5.08058 20.7891 6.14933 21.15 6.18683 21.1078C6.47277 20.775 7.40558 19.2328 7.40558 19.0875C7.40558 19.0641 7.26496 18.9844 7.09152 18.9141C6.5009 18.6703 5.48371 18.1359 5.48371 18.0703C5.48371 18.0328 5.57746 17.9297 5.69465 17.8359L5.90558 17.6625L6.47746 17.8969C10.1806 19.4109 13.9493 19.3922 17.615 17.85C17.854 17.7516 18.0743 17.6812 18.1071 17.7C18.2712 17.7984 18.515 18.0141 18.515 18.0703C18.515 18.1312 17.5259 18.6516 16.9915 18.8672C16.8134 18.9422 16.64 19.0219 16.6071 19.05C16.565 19.0875 16.6212 19.2281 16.8556 19.6359C17.1462 20.1422 17.7931 21.1406 17.8306 21.1406C17.8915 21.1406 19.054 20.7187 19.5462 20.5219C20.7415 20.0391 22.2603 19.2141 23.329 18.4734C23.5915 18.2906 23.8306 18.1031 23.854 18.0562C23.8775 18.0094 23.9243 17.5078 23.9525 16.9406C24.1212 13.4297 23.4275 10.1437 21.8384 6.97969C21.4353 6.17344 20.9993 5.41406 20.5728 4.77656L20.3009 4.37344L19.7009 4.125C18.2993 3.54844 16.94 3.14531 15.5243 2.8875L15.3743 2.85937L15.0603 3.50625C14.8915 3.85781 14.7462 4.15312 14.7462 4.15312C14.7415 4.15781 14.5306 4.13437 14.2728 4.09687C12.9321 3.91875 11.0665 3.91875 9.7259 4.09687C9.46809 4.13437 9.25715 4.15781 9.25715 4.15312C9.18215 3.94219 8.6009 2.85937 8.5634 2.86406C8.53058 2.86406 8.19308 2.93437 7.80402 3.01875ZM16.8696 10.6875C17.4368 10.9547 17.9337 11.6016 18.0978 12.2812C18.1868 12.6609 18.1634 13.3219 18.0509 13.6875C17.8446 14.3484 17.4134 14.8641 16.8415 15.15C16.5415 15.2953 16.4993 15.3047 16.0071 15.3047C15.5009 15.3047 15.4775 15.3 15.1306 15.1266C13.5134 14.3297 13.3775 11.8641 14.8915 10.8187C15.4493 10.4391 16.2181 10.3875 16.8696 10.6875ZM8.88683 10.6828C9.4634 10.9687 9.89465 11.5031 10.0962 12.1828C10.19 12.5062 10.1946 13.2469 10.1009 13.5937C9.91809 14.2781 9.45871 14.8641 8.87746 15.1453C8.56808 15.2953 8.5259 15.3047 8.0384 15.3047C7.55558 15.3047 7.50402 15.2953 7.20402 15.1547C6.75871 14.9437 6.36965 14.5594 6.14465 14.1047C5.90558 13.6312 5.83996 13.3078 5.87277 12.75C5.91027 12.0094 6.24777 11.325 6.76808 10.9312C7.24152 10.5703 7.48058 10.4953 8.08996 10.5094C8.51652 10.5234 8.59152 10.5422 8.88683 10.6828Z" fill="#1919BC"/>
</svg>
