<svg width="24" height="24" viewBox="0 0 24 24" fill="none" xmlns="http://www.w3.org/2000/svg">
<g clip-path="url(#clip0_1461_3711)">
<path d="M5.15742 0.0703628C3.81211 0.271925 2.74805 0.8063 1.77773 1.77661C0.779297 2.77505 0.235547 3.89068 0.0527344 5.29224C-0.0175781 5.84067 -0.0175781 18.1594 0.0527344 18.7079C0.235547 20.1094 0.779297 21.225 1.77773 22.2235C2.77617 23.2219 3.8918 23.7657 5.29336 23.9485C5.8418 24.0188 18.1605 24.0188 18.709 23.9485C20.1105 23.7657 21.2262 23.2219 22.2246 22.2235C23.223 21.225 23.7668 20.1094 23.9496 18.7079C24.0199 18.1594 24.0199 5.84067 23.9496 5.29224C23.7668 3.89068 23.223 2.77505 22.2246 1.77661C21.2262 0.778175 20.1105 0.234425 18.709 0.0516128C18.109 -0.0280747 5.68711 -0.00932474 5.15742 0.0703628ZM19.2059 2.18911C19.7355 2.37193 19.8527 2.43286 20.2887 2.73286C20.9824 3.21099 21.5309 3.9563 21.8074 4.79536L21.9621 5.27349V12C21.9621 18.436 21.9574 18.7407 21.873 19.0079C21.559 20.025 21.0152 20.7797 20.2137 21.3235C19.8668 21.5579 19.5668 21.6938 19.0793 21.8485L18.7277 21.961H12.0012H5.27461L4.79648 21.8063C3.48398 21.375 2.56523 20.4141 2.1293 19.0079C2.04492 18.7407 2.04023 18.436 2.04023 12C2.04023 5.56411 2.04492 5.25942 2.1293 4.99224C2.46211 3.92349 3.04336 3.14536 3.91055 2.60161C4.27617 2.37193 4.9043 2.12818 5.29336 2.06255C5.41055 2.0438 8.49492 2.02974 12.1418 2.03443L18.7746 2.03911L19.2059 2.18911Z" fill="#1919BC"/>
<path d="M18.1875 4.05006C17.8547 4.12506 17.6625 4.22819 17.4375 4.45788C17.1328 4.77194 17.0391 5.02038 17.0391 5.50788C17.0391 5.8735 17.0578 5.96256 17.1656 6.16413C17.4234 6.65163 17.8594 6.93756 18.4031 6.97506C18.8016 6.9985 19.0125 6.94225 19.3453 6.71725C20.2781 6.08913 20.1703 4.65944 19.1578 4.17663C18.8109 4.01256 18.5344 3.97506 18.1875 4.05006Z" fill="#1919BC"/>
<path d="M11.2344 6.05161C8.97031 6.36567 7.03906 7.94067 6.33594 10.0594C6.09688 10.7813 6.03125 11.1985 6.03125 12C6.03125 12.8016 6.09688 13.2188 6.33594 13.9454C6.90313 15.6422 8.36563 17.1 10.0719 17.6719C10.7844 17.9063 11.2063 17.9719 12.0031 17.9719C12.8 17.9719 13.2219 17.9063 13.9344 17.6719C15.6406 17.1 17.1031 15.6422 17.6703 13.9454C17.9094 13.2188 17.975 12.8016 17.975 12C17.975 10.95 17.7734 10.0922 17.3188 9.23442C16.4516 7.60786 14.9609 6.48755 13.1516 6.11724C12.7016 6.02349 11.6797 5.98599 11.2344 6.05161ZM13.2078 8.19849C13.7094 8.36255 13.8453 8.42817 14.2297 8.68599C15.0172 9.21567 15.5469 9.95161 15.8516 10.9219C15.9453 11.2266 15.9641 11.3719 15.9641 12C15.9641 12.7735 15.9078 13.0594 15.6313 13.6735C15.2844 14.461 14.4641 15.2813 13.6719 15.6329C13.0625 15.9047 12.7766 15.961 12.0031 15.961C11.2297 15.961 10.9438 15.9047 10.3344 15.6329C9.54219 15.2813 8.72188 14.461 8.375 13.6735C8.09844 13.0594 8.04219 12.7735 8.04219 12C8.04219 11.3719 8.06094 11.2266 8.15469 10.9219C8.31406 10.4157 8.45469 10.1204 8.72188 9.7313C9.25156 8.96255 9.99219 8.43286 10.9016 8.16567C11.3656 8.02974 11.4359 8.02036 12.1438 8.03911C12.7016 8.05317 12.8281 8.07192 13.2078 8.19849Z" fill="#1919BC"/>
</g>
<defs>
<clipPath id="clip0_1461_3711">
<rect width="24" height="24" fill="white"/>
</clipPath>
</defs>
</svg>
