<svg width="24" height="24" viewBox="0 0 24 24" fill="none" xmlns="http://www.w3.org/2000/svg">
<g clip-path="url(#clip0_1461_3740)">
<path d="M2.68254 0.0515615C1.37473 0.271874 0.249726 1.42031 0.0481637 2.74687C0.0153512 2.96719 0.00128867 5.96719 0.0106637 12.2109L0.0247262 21.3516L0.155976 21.7266C0.526289 22.7719 1.22941 23.475 2.27473 23.8453L2.64973 23.9766H12.0013H21.3529L21.7279 23.8453C22.8107 23.4609 23.556 22.6828 23.8935 21.5859C23.9732 21.3187 23.9779 20.8922 23.9779 11.9766V2.64844L23.8466 2.27344C23.4763 1.22812 22.7732 0.524999 21.7279 0.154687L21.3529 0.0234365L12.1419 0.018749C6.94348 0.0140615 2.82316 0.028124 2.68254 0.0515615ZM7.10285 4.57031C7.69816 4.72969 8.18098 5.13281 8.45285 5.70469C8.64035 6.10781 8.68254 6.675 8.55598 7.10625C8.30285 7.97812 7.51066 8.57812 6.62473 8.57812C5.8091 8.57812 5.09191 8.13281 4.7591 7.42031C4.02316 5.86875 5.44348 4.13906 7.10285 4.57031ZM16.2997 9.33281C17.9357 9.51562 18.9154 10.4531 19.2622 12.1687C19.4216 12.9562 19.4544 13.6641 19.4544 16.4719V19.1812L19.295 19.3406L19.1357 19.5H17.8513C16.6607 19.5 16.5622 19.4953 16.4216 19.4062C16.3372 19.3547 16.2575 19.2656 16.2435 19.2094C16.2341 19.1484 16.2154 17.8687 16.206 16.3594C16.1919 13.9406 16.1825 13.5844 16.1122 13.3359C15.9857 12.8953 15.8122 12.5812 15.5825 12.3797C15.3013 12.1312 15.0294 12.0469 14.5325 12.0469C14.1716 12.0469 14.0919 12.0656 13.8388 12.1875C13.4966 12.3609 13.2529 12.6187 13.0747 13.0031C12.7794 13.6406 12.7841 13.5984 12.756 16.5562L12.7279 19.2609L12.62 19.3687C12.5169 19.4766 12.4935 19.4766 11.2513 19.4906C9.86379 19.5047 9.77004 19.4906 9.66223 19.2328C9.62473 19.1344 9.61066 17.8781 9.62004 14.4L9.6341 9.69375L9.76535 9.58125L9.8966 9.46875H11.1857C11.9779 9.46875 12.5122 9.4875 12.5638 9.51562C12.7185 9.6 12.77 9.75469 12.7982 10.2094L12.8216 10.6453L13.0044 10.4109C13.6372 9.57656 14.8747 9.17344 16.2997 9.33281ZM8.01691 9.6C8.10598 9.68906 8.15754 9.80156 8.18098 9.94219C8.19504 10.0547 8.20441 12.1734 8.19504 14.6484C8.18098 18.8906 8.17629 19.1578 8.0966 19.2703C7.9466 19.4906 7.84348 19.5047 6.52629 19.4906L5.29816 19.4766L5.1716 19.3453L5.04035 19.2187L5.02629 14.5641C5.0216 12.0094 5.02629 9.8625 5.04035 9.80625C5.05441 9.74531 5.12473 9.64219 5.19035 9.58125L5.31223 9.46875H6.5966H7.88566L8.01691 9.6Z" fill="#1919BD"/>
</g>
<defs>
<clipPath id="clip0_1461_3740">
<rect width="24" height="24" fill="white"/>
</clipPath>
</defs>
</svg>
