<svg width="200" height="200" viewBox="0 0 200 200" fill="none" xmlns="http://www.w3.org/2000/svg">
<rect width="200" height="200" rx="30" fill="#F4F2FE"/>
<path d="M106.818 107.182C103.03 107.182 99.8106 105.856 97.1591 103.205C94.5076 100.553 93.1818 97.3333 93.1818 93.5455C93.1818 89.7576 94.5076 86.5379 97.1591 83.8864C99.8106 81.2348 103.03 79.9091 106.818 79.9091C110.606 79.9091 113.826 81.2348 116.477 83.8864C119.129 86.5379 120.455 89.7576 120.455 93.5455C120.455 97.3333 119.129 100.553 116.477 103.205C113.826 105.856 110.606 107.182 106.818 107.182ZM70.4545 123.091C68.5606 123.091 66.9508 122.428 65.625 121.102C64.2992 119.777 63.6364 118.167 63.6364 116.273V70.8182C63.6364 68.9242 64.2992 67.3144 65.625 65.9886C66.9508 64.6629 68.5606 64 70.4545 64H143.182C145.076 64 146.686 64.6629 148.011 65.9886C149.337 67.3144 150 68.9242 150 70.8182V116.273C150 118.167 149.337 119.777 148.011 121.102C146.686 122.428 145.076 123.091 143.182 123.091H70.4545ZM81.8182 116.273H131.818C131.818 113.091 132.917 110.402 135.114 108.205C137.311 106.008 140 104.909 143.182 104.909V82.1818C140 82.1818 137.311 81.0833 135.114 78.8864C132.917 76.6894 131.818 74 131.818 70.8182H81.8182C81.8182 74 80.7197 76.6894 78.5227 78.8864C76.3258 81.0833 73.6364 82.1818 70.4545 82.1818V104.909C73.6364 104.909 76.3258 106.008 78.5227 108.205C80.7197 110.402 81.8182 113.091 81.8182 116.273ZM56.8182 136.727C54.9242 136.727 53.3144 136.064 51.9886 134.739C50.6629 133.413 50 131.803 50 129.909V81.0455C50 80.0606 50.322 79.2462 50.9659 78.6023C51.6098 77.9583 52.4242 77.6364 53.4091 77.6364C54.3939 77.6364 55.2083 77.9583 55.8523 78.6023C56.4962 79.2462 56.8182 80.0606 56.8182 81.0455V129.909H132.955C133.939 129.909 134.754 130.231 135.398 130.875C136.042 131.519 136.364 132.333 136.364 133.318C136.364 134.303 136.042 135.117 135.398 135.761C134.754 136.405 133.939 136.727 132.955 136.727H56.8182Z" fill="#845CF5"/>
</svg>
