<svg width="200" height="200" viewBox="0 0 200 200" fill="none" xmlns="http://www.w3.org/2000/svg">
<g clip-path="url(#clip0_2563_28689)">
<path d="M100 200C155.229 200 200 155.229 200 100C200 44.7716 155.229 0 100 0C44.7716 0 0 44.7716 0 100C0 155.229 44.7716 200 100 200Z" fill="#E4FBFF"/>
<path d="M57.9545 133.068C55.7576 133.068 53.8826 132.292 52.3295 130.739C50.7765 129.186 50 127.311 50 125.114C50 122.917 50.7765 121.042 52.3295 119.489C53.8826 117.936 55.7576 117.159 57.9545 117.159C58.3333 117.159 58.7121 117.178 59.0909 117.216C59.4697 117.254 59.9621 117.348 60.5682 117.5L83.2955 94.7727C83.1439 94.1667 83.0492 93.6742 83.0114 93.2955C82.9735 92.9167 82.9545 92.5379 82.9545 92.1591C82.9545 89.9621 83.7311 88.0871 85.2841 86.5341C86.8371 84.9811 88.7121 84.2045 90.9091 84.2045C93.1061 84.2045 94.9811 84.9811 96.5341 86.5341C98.0871 88.0871 98.8636 89.9621 98.8636 92.1591C98.8636 92.3106 98.75 93.1818 98.5227 94.7727L111.023 107.273C111.629 107.121 112.121 107.027 112.5 106.989C112.879 106.951 113.258 106.932 113.636 106.932C114.015 106.932 114.394 106.951 114.773 106.989C115.152 107.027 115.644 107.121 116.25 107.273L134.432 89.0909C134.28 88.4848 134.186 87.9924 134.148 87.6136C134.11 87.2348 134.091 86.8561 134.091 86.4773C134.091 84.2803 134.867 82.4053 136.42 80.8523C137.973 79.2992 139.848 78.5227 142.045 78.5227C144.242 78.5227 146.117 79.2992 147.67 80.8523C149.223 82.4053 150 84.2803 150 86.4773C150 88.6742 149.223 90.5492 147.67 92.1023C146.117 93.6553 144.242 94.4318 142.045 94.4318C141.667 94.4318 141.288 94.4129 140.909 94.375C140.53 94.3371 140.038 94.2424 139.432 94.0909L121.25 112.273C121.402 112.879 121.496 113.371 121.534 113.75C121.572 114.129 121.591 114.508 121.591 114.886C121.591 117.083 120.814 118.958 119.261 120.511C117.708 122.064 115.833 122.841 113.636 122.841C111.439 122.841 109.564 122.064 108.011 120.511C106.458 118.958 105.682 117.083 105.682 114.886C105.682 114.508 105.701 114.129 105.739 113.75C105.777 113.371 105.871 112.879 106.023 112.273L93.5227 99.7727C92.9167 99.9242 92.4242 100.019 92.0455 100.057C91.6667 100.095 91.2879 100.114 90.9091 100.114C90.7576 100.114 89.8864 100 88.2955 99.7727L65.5682 122.5C65.7197 123.106 65.8144 123.598 65.8523 123.977C65.8902 124.356 65.9091 124.735 65.9091 125.114C65.9091 127.311 65.1326 129.186 63.5795 130.739C62.0265 132.292 60.1515 133.068 57.9545 133.068ZM63.6364 82.8409L61.3636 77.8409L56.3636 75.5682L61.3636 73.2955L63.6364 68.2955L65.9091 73.2955L70.9091 75.5682L65.9091 77.8409L63.6364 82.8409ZM113.636 77.0455L110.114 69.5455L102.614 66.0227L110.114 62.5L113.636 55L117.159 62.5L124.659 66.0227L117.159 69.5455L113.636 77.0455Z" fill="#0202FF"/>
</g>
<defs>
<clipPath id="clip0_2563_28689">
<rect width="200" height="200" fill="white"/>
</clipPath>
</defs>
</svg>
