<svg width="200" height="200" viewBox="0 0 200 200" fill="none" xmlns="http://www.w3.org/2000/svg">
<rect width="200" height="200" rx="30" fill="#FFE7F1"/>
<path d="M60.1926 149.837C57.3098 149.837 54.8904 148.859 52.9342 146.903C50.9781 144.947 50 142.527 50 139.645C50 136.762 50.9781 134.342 52.9342 132.386C54.8904 130.43 57.3098 129.452 60.1926 129.452C63.0753 129.452 65.4948 130.43 67.4509 132.386C69.4071 134.342 70.3852 136.762 70.3852 139.645C70.3852 142.527 69.4071 144.947 67.4509 146.903C65.4948 148.859 63.0753 149.837 60.1926 149.837ZM60.1926 110.611C57.3098 110.611 54.8904 109.633 52.9342 107.677C50.9781 105.721 50 103.301 50 100.419C50 97.5359 50.9781 95.1164 52.9342 93.1602C54.8904 91.2041 57.3098 90.226 60.1926 90.226C63.0753 90.226 65.4948 91.2041 67.4509 93.1602C69.4071 95.1164 70.3852 97.5359 70.3852 100.419C70.3852 103.301 69.4071 105.721 67.4509 107.677C65.4948 109.633 63.0753 110.611 60.1926 110.611ZM60.1926 71.3852C57.3098 71.3852 54.8904 70.4071 52.9342 68.4509C50.9781 66.4948 50 64.0753 50 61.1926C50 58.3098 50.9781 55.8904 52.9342 53.9342C54.8904 51.9781 57.3098 51 60.1926 51C63.0753 51 65.4948 51.9781 67.4509 53.9342C69.4071 55.8904 70.3852 58.3098 70.3852 61.1926C70.3852 64.0753 69.4071 66.4948 67.4509 68.4509C65.4948 70.4071 63.0753 71.3852 60.1926 71.3852ZM99.4186 110.611C96.5359 110.611 94.1164 109.633 92.1602 107.677C90.2041 105.721 89.226 103.301 89.226 100.419C89.226 97.5359 90.2041 95.1164 92.1602 93.1602C94.1164 91.2041 96.5359 90.226 99.4186 90.226C102.301 90.226 104.721 91.2041 106.677 93.1602C108.633 95.1164 109.611 97.5359 109.611 100.419L99.4186 110.611ZM99.4186 71.3852C96.5359 71.3852 94.1164 70.4071 92.1602 68.4509C90.2041 66.4948 89.226 64.0753 89.226 61.1926C89.226 58.3098 90.2041 55.8904 92.1602 53.9342C94.1164 51.9781 96.5359 51 99.4186 51C102.301 51 104.721 51.9781 106.677 53.9342C108.633 55.8904 109.611 58.3098 109.611 61.1926C109.611 64.0753 108.633 66.4948 106.677 68.4509C104.721 70.4071 102.301 71.3852 99.4186 71.3852ZM95.5578 149.837C94.94 149.837 94.3995 149.606 93.9362 149.142C93.4729 148.679 93.2413 148.138 93.2413 147.521V140.726C93.2413 140.52 93.4472 140.005 93.859 139.181L130.769 102.272L140.807 112.31L103.897 149.219C103.691 149.425 103.176 149.631 102.353 149.837H95.5578ZM138.645 71.3852C135.762 71.3852 133.342 70.4071 131.386 68.4509C129.43 66.4948 128.452 64.0753 128.452 61.1926C128.452 58.3098 129.43 55.8904 131.386 53.9342C133.342 51.9781 135.762 51 138.645 51C141.527 51 143.947 51.9781 145.903 53.9342C147.859 55.8904 148.837 58.3098 148.837 61.1926C148.837 64.0753 147.859 66.4948 145.903 68.4509C143.947 70.4071 141.527 71.3852 138.645 71.3852ZM144.822 108.295L134.784 98.2565L138.645 94.3957C139.468 93.5721 140.498 93.1345 141.733 93.083C142.969 93.0316 143.998 93.4176 144.822 94.2413L148.837 98.2565C149.661 99.0802 150.047 100.11 149.995 101.345C149.944 102.581 149.506 103.61 148.683 104.434L144.822 108.295Z" fill="#F72686"/>
</svg>
