<svg width="200" height="200" viewBox="0 0 200 200" fill="none" xmlns="http://www.w3.org/2000/svg">
<g clip-path="url(#clip0_2569_29582)">
<path d="M100 200C155.229 200 200 155.229 200 100C200 44.7716 155.229 0 100 0C44.7716 0 0 44.7716 0 100C0 155.229 44.7716 200 100 200Z" fill="#E4FBFF"/>
<path d="M95.1385 105.919L85.1889 95.9698C84.4332 95.2141 83.5097 94.8363 82.4181 94.8363C81.3266 94.8363 80.403 95.2141 79.6474 95.9698C78.8917 96.7254 78.5139 97.649 78.5139 98.7406C78.5139 99.8321 78.8917 100.756 79.6474 101.511L92.1159 113.98C92.8715 114.736 93.7741 115.113 94.8237 115.113C95.8732 115.113 96.7758 114.736 97.5315 113.98L120.831 90.6801C121.503 90.0084 121.839 89.1268 121.839 88.0353C121.839 86.9437 121.503 86.0621 120.831 85.3904C120.16 84.7187 119.299 84.3829 118.249 84.3829C117.2 84.3829 116.339 84.7187 115.668 85.3904L95.1385 105.919ZM100.302 150C99.9664 150 99.6516 149.979 99.3577 149.937C99.0638 149.895 98.7909 149.832 98.539 149.748C87.288 146.39 78.0521 139.484 70.8312 129.03C63.6104 118.577 60 107.095 60 94.5844V69.8992C60 68.3039 60.4618 66.8556 61.3854 65.5542C62.309 64.2527 63.4845 63.3081 64.9118 62.7204L97.6574 50.5038C98.581 50.1679 99.4626 50 100.302 50C101.142 50 102.024 50.1679 102.947 50.5038L135.693 62.7204C137.12 63.3081 138.296 64.2527 139.219 65.5542C140.143 66.8556 140.605 68.3039 140.605 69.8992V94.5844C140.605 107.095 136.994 118.577 129.773 129.03C122.552 139.484 113.317 146.39 102.065 149.748L100.302 150ZM100.302 142.443C109.958 139.253 117.83 133.228 123.917 124.37C130.004 115.512 133.048 105.584 133.048 94.5844V69.8992L100.302 57.5567L67.5567 69.8992V94.5844C67.5567 105.584 70.6003 115.512 76.6877 124.37C82.775 133.228 90.6465 139.253 100.302 142.443Z" fill="#0202FF"/>
</g>
<defs>
<clipPath id="clip0_2569_29582">
<rect width="200" height="200" fill="white"/>
</clipPath>
</defs>
</svg>
