<svg width="200" height="200" viewBox="0 0 200 200" fill="none" xmlns="http://www.w3.org/2000/svg">
<g clip-path="url(#clip0_2563_28681)">
<path d="M100 200C155.229 200 200 155.229 200 100C200 44.7716 155.229 0 100 0C44.7716 0 0 44.7716 0 100C0 155.229 44.7716 200 100 200Z" fill="#E4FBFF"/>
<path d="M106.75 111.475C107.725 111.475 108.531 111.156 109.169 110.519C109.806 109.881 110.125 109.075 110.125 108.1V96.625H121.6C122.575 96.625 123.381 96.3063 124.019 95.6688C124.656 95.0313 124.975 94.225 124.975 93.25C124.975 92.275 124.656 91.4687 124.019 90.8312C123.381 90.1937 122.575 89.875 121.6 89.875H110.125V78.4C110.125 77.425 109.806 76.6187 109.169 75.9812C108.531 75.3437 107.725 75.025 106.75 75.025C105.775 75.025 104.969 75.3437 104.331 75.9812C103.694 76.6187 103.375 77.425 103.375 78.4V89.875H91.9C90.925 89.875 90.1188 90.1937 89.4813 90.8312C88.8438 91.4687 88.525 92.275 88.525 93.25C88.525 94.225 88.8438 95.0313 89.4813 95.6688C90.1188 96.3063 90.925 96.625 91.9 96.625H103.375V108.1C103.375 109.075 103.694 109.881 104.331 110.519C104.969 111.156 105.775 111.475 106.75 111.475ZM75.25 131.5C73.45 131.5 71.875 130.825 70.525 129.475C69.175 128.125 68.5 126.55 68.5 124.75V61.75C68.5 59.95 69.175 58.375 70.525 57.025C71.875 55.675 73.45 55 75.25 55H138.25C140.05 55 141.625 55.675 142.975 57.025C144.325 58.375 145 59.95 145 61.75V124.75C145 126.55 144.325 128.125 142.975 129.475C141.625 130.825 140.05 131.5 138.25 131.5H75.25ZM75.25 124.75H138.25V61.75H75.25V124.75ZM61.75 145C59.95 145 58.375 144.325 57.025 142.975C55.675 141.625 55 140.05 55 138.25V71.875C55 70.9 55.3188 70.0938 55.9563 69.4563C56.5938 68.8188 57.4 68.5 58.375 68.5C59.35 68.5 60.1562 68.8188 60.7937 69.4563C61.4312 70.0938 61.75 70.9 61.75 71.875V138.25H128.125C129.1 138.25 129.906 138.569 130.544 139.206C131.181 139.844 131.5 140.65 131.5 141.625C131.5 142.6 131.181 143.406 130.544 144.044C129.906 144.681 129.1 145 128.125 145H61.75Z" fill="#0202FF"/>
</g>
<defs>
<clipPath id="clip0_2563_28681">
<rect width="200" height="200" fill="white"/>
</clipPath>
</defs>
</svg>
