<svg width="24" height="24" viewBox="0 0 24 24" fill="none" xmlns="http://www.w3.org/2000/svg">
<path d="M12.552 8.49377C12.5286 18.0656 12.5567 17.3063 12.1583 18.1172C11.8067 18.8344 11.277 19.3641 10.5692 19.7157C9.97389 20.0063 9.65046 20.0813 8.97546 20.0813C8.31921 20.0813 7.98639 20.0063 7.42858 19.7344C6.72077 19.3828 6.1489 18.8156 5.8114 18.1172C5.53952 17.55 5.46452 17.2266 5.46452 16.5703C5.45983 15.8906 5.53483 15.5766 5.84421 14.9531C6.02702 14.5781 6.12546 14.4422 6.48639 14.086C6.95046 13.6219 7.37702 13.3641 7.99108 13.1719C8.44108 13.0313 9.18639 12.9985 9.65514 13.0969C9.84733 13.1391 10.0348 13.1719 10.0676 13.1719C10.1098 13.1719 10.1239 12.7453 10.1239 11.2078V9.23909L9.90358 9.20159C9.77702 9.18284 9.34108 9.16877 8.92858 9.16877C7.72389 9.17346 6.77233 9.38909 5.73171 9.89065C1.61608 11.8688 0.219208 16.8797 2.72702 20.6625C3.16296 21.3188 4.10046 22.261 4.73327 22.6828C6.69265 23.9813 9.05046 24.3188 11.2958 23.6157C13.3067 22.9875 15.102 21.3422 15.913 19.3922C16.1192 18.886 16.2786 18.3281 16.3864 17.7422C16.4614 17.311 16.4661 16.9078 16.4567 12.5719C16.4473 9.98909 16.4567 7.87502 16.4755 7.87502C16.4942 7.87502 16.588 7.93596 16.6817 8.01096C17.2067 8.42815 18.2755 8.99534 19.0864 9.30002C20.0005 9.63752 21.2942 9.89065 22.1239 9.89065H22.5458L22.5364 7.95471L22.5223 6.02346L22.0676 5.99534C20.6333 5.90159 19.3255 5.30159 18.252 4.24221C17.202 3.21096 16.588 1.88909 16.4708 0.407837L16.438 2.42243e-05H14.5067H12.5708L12.552 8.49377Z" fill="#1919BC"/>
</svg>
