<svg width="132" height="132" viewBox="0 0 132 132" fill="none" xmlns="http://www.w3.org/2000/svg">
<circle cx="74.8245" cy="74.8564" r="2.57312" fill="black" fill-opacity="0.1"/>
<circle cx="92.837" cy="74.856" r="2.57312" fill="black" fill-opacity="0.1"/>
<circle cx="110.851" cy="74.856" r="2.57312" fill="black" fill-opacity="0.1"/>
<circle cx="128.86" cy="74.856" r="2.57312" fill="black" fill-opacity="0.1"/>
<circle cx="74.8242" cy="92.869" r="2.57312" fill="black" fill-opacity="0.1"/>
<circle cx="92.8367" cy="92.8689" r="2.57312" fill="black" fill-opacity="0.1"/>
<circle cx="110.851" cy="92.8689" r="2.57312" fill="black" fill-opacity="0.1"/>
<circle cx="128.86" cy="92.8689" r="2.57312" fill="black" fill-opacity="0.1"/>
<circle cx="74.8242" cy="110.881" r="2.57312" fill="black" fill-opacity="0.1"/>
<circle cx="92.8367" cy="110.88" r="2.57312" fill="black" fill-opacity="0.1"/>
<circle cx="110.851" cy="110.88" r="2.57312" fill="black" fill-opacity="0.1"/>
<circle cx="128.86" cy="110.88" r="2.57312" fill="black" fill-opacity="0.1"/>
<circle cx="74.8242" cy="128.892" r="2.57312" fill="black" fill-opacity="0.1"/>
<circle cx="92.8367" cy="128.891" r="2.57312" fill="black" fill-opacity="0.1"/>
<circle cx="110.851" cy="128.891" r="2.57312" fill="black" fill-opacity="0.1"/>
<circle cx="128.86" cy="128.891" r="2.57312" fill="black" fill-opacity="0.1"/>
<circle cx="2.92926" cy="74.857" r="2.57312" fill="black" fill-opacity="0.1"/>
<circle cx="20.9398" cy="74.8564" r="2.57312" fill="black" fill-opacity="0.1"/>
<circle cx="38.9536" cy="74.8564" r="2.57312" fill="black" fill-opacity="0.1"/>
<circle cx="56.9642" cy="74.8564" r="2.57312" fill="black" fill-opacity="0.1"/>
<circle cx="2.92914" cy="92.8692" r="2.57312" fill="black" fill-opacity="0.1"/>
<circle cx="20.9397" cy="92.8687" r="2.57312" fill="black" fill-opacity="0.1"/>
<circle cx="38.9535" cy="92.8687" r="2.57312" fill="black" fill-opacity="0.1"/>
<circle cx="56.9641" cy="92.8687" r="2.57312" fill="black" fill-opacity="0.1"/>
<circle cx="2.92914" cy="110.881" r="2.57312" fill="black" fill-opacity="0.1"/>
<circle cx="20.9397" cy="110.881" r="2.57312" fill="black" fill-opacity="0.1"/>
<circle cx="38.9535" cy="110.881" r="2.57312" fill="black" fill-opacity="0.1"/>
<circle cx="56.9641" cy="110.881" r="2.57312" fill="black" fill-opacity="0.1"/>
<circle cx="2.92914" cy="128.892" r="2.57312" fill="black" fill-opacity="0.1"/>
<circle cx="20.9397" cy="128.892" r="2.57312" fill="black" fill-opacity="0.1"/>
<circle cx="38.9535" cy="128.892" r="2.57312" fill="black" fill-opacity="0.1"/>
<circle cx="56.9641" cy="128.892" r="2.57312" fill="black" fill-opacity="0.1"/>
<circle cx="74.8246" cy="2.96115" r="2.57312" fill="black" fill-opacity="0.1"/>
<circle cx="92.8371" cy="2.96039" r="2.57312" fill="black" fill-opacity="0.1"/>
<circle cx="110.849" cy="2.96039" r="2.57312" fill="black" fill-opacity="0.1"/>
<circle cx="128.86" cy="2.96039" r="2.57312" fill="black" fill-opacity="0.1"/>
<circle cx="74.8243" cy="20.9729" r="2.57312" fill="black" fill-opacity="0.1"/>
<circle cx="92.8369" cy="20.9724" r="2.57312" fill="black" fill-opacity="0.1"/>
<circle cx="110.849" cy="20.9724" r="2.57312" fill="black" fill-opacity="0.1"/>
<circle cx="128.86" cy="20.9724" r="2.57312" fill="black" fill-opacity="0.1"/>
<circle cx="74.8243" cy="38.9842" r="2.57312" fill="black" fill-opacity="0.1"/>
<circle cx="92.8369" cy="38.9844" r="2.57312" fill="black" fill-opacity="0.1"/>
<circle cx="110.849" cy="38.9844" r="2.57312" fill="black" fill-opacity="0.1"/>
<circle cx="128.86" cy="38.9844" r="2.57312" fill="black" fill-opacity="0.1"/>
<circle cx="74.8243" cy="56.9959" r="2.57312" fill="black" fill-opacity="0.1"/>
<circle cx="92.8369" cy="56.9954" r="2.57312" fill="black" fill-opacity="0.1"/>
<circle cx="110.849" cy="56.9954" r="2.57312" fill="black" fill-opacity="0.1"/>
<circle cx="128.86" cy="56.9954" r="2.57312" fill="black" fill-opacity="0.1"/>
<circle cx="2.92939" cy="2.96277" r="2.57312" fill="black" fill-opacity="0.1"/>
<circle cx="20.9399" cy="2.96216" r="2.57312" fill="black" fill-opacity="0.1"/>
<circle cx="38.9527" cy="2.96216" r="2.57312" fill="black" fill-opacity="0.1"/>
<circle cx="56.9643" cy="2.96216" r="2.57312" fill="black" fill-opacity="0.1"/>
<circle cx="2.92926" cy="20.9742" r="2.57312" fill="black" fill-opacity="0.1"/>
<circle cx="20.9398" cy="20.9737" r="2.57312" fill="black" fill-opacity="0.1"/>
<circle cx="38.9525" cy="20.9737" r="2.57312" fill="black" fill-opacity="0.1"/>
<circle cx="56.9642" cy="20.9737" r="2.57312" fill="black" fill-opacity="0.1"/>
<circle cx="2.92926" cy="38.986" r="2.57312" fill="black" fill-opacity="0.1"/>
<circle cx="20.9398" cy="38.9864" r="2.57312" fill="black" fill-opacity="0.1"/>
<circle cx="38.9525" cy="38.9864" r="2.57312" fill="black" fill-opacity="0.1"/>
<circle cx="56.9642" cy="38.9864" r="2.57312" fill="black" fill-opacity="0.1"/>
<circle cx="2.92926" cy="56.9984" r="2.57312" fill="black" fill-opacity="0.1"/>
<circle cx="20.9398" cy="56.9974" r="2.57312" fill="black" fill-opacity="0.1"/>
<circle cx="38.9525" cy="56.9974" r="2.57312" fill="black" fill-opacity="0.1"/>
<circle cx="56.9642" cy="56.9974" r="2.57312" fill="black" fill-opacity="0.1"/>
</svg>
